<svg width="187" height="17" viewBox="0 0 187 17" fill="none" xmlns="http://www.w3.org/2000/svg">
<g clip-path="url(#clip0_183_233)">
<path d="M7.23 2.18C9.43 2.18 10.91 3.57 11.21 5.9H13.78C13.48 2.35 10.97 0 7.25 0C2.87 0 0 3.2 0 7.75V8.27C0 12.86 2.85 16.02 7.23 16.02C11.08 16.02 13.54 13.43 13.78 9.9H11.19C11.08 12.25 9.58 13.82 7.23 13.82C4.35 13.82 2.61 11.56 2.61 8.27V7.75C2.61 4.46 4.33 2.18 7.23 2.18ZM19.95 0.28L14.01 15.74H16.58L17.97 11.97H24.61L25.98 15.74H28.66L22.71 0.28H19.95ZM18.75 9.86L21.3 2.98L23.83 9.86H18.76H18.75ZM36.52 0.28H30.23V15.74H32.73V9.86H36.52C39.63 9.86 41.81 8.25 41.81 5.24V4.89C41.81 1.89 39.63 0.27 36.52 0.27V0.28ZM39.22 5.24C39.22 6.94 38.07 7.72 36.32 7.72H32.73V2.42H36.32C38.06 2.42 39.22 3.2 39.22 4.9V5.25V5.24ZM43.82 15.74H46.37V0.28H43.82V15.74ZM59.93 0.28H48.26V2.39H52.81V15.74H55.36V2.4H59.93V0.28ZM63.85 0.28L57.91 15.74H60.48L61.87 11.97H68.51L69.88 15.74H72.56L66.62 0.28H63.86H63.85ZM62.65 9.86L65.2 2.98L67.73 9.86H62.66H62.65ZM76.9 13.63V0.28H74.35V15.74H83.36V13.63H76.89H76.9Z" fill="#70C2A7"/>
<path d="M98.11 13.67L89.38 0.28H87.7V15.74H89.07V2.18L97.91 15.75H99.5V0.28H98.11V13.67ZM103.38 8.44H111.15V7.2H103.38V1.5H111.85V0.28H101.99V15.74H111.94V14.52H103.38V8.44ZM113.57 1.49H118.45V15.73H119.84V1.5H124.72V0.28H113.57V1.5V1.49ZM140.51 13.9L136.59 0.27H134.98L131.1 13.92L127.38 0.27H125.9L130.23 15.73H131.88L135.76 2.1L139.68 15.73H141.29L145.58 0.27H144.16L140.5 13.9H140.51ZM153.15 0.0200005C148.88 0.0200005 146.12 3.09 146.12 7.68V8.33C146.12 12.92 148.88 15.99 153.15 15.99C157.42 15.99 160.16 12.92 160.16 8.33V7.68C160.16 3.09 157.42 0.0200005 153.15 0.0200005ZM158.75 8.34C158.75 12.17 156.64 14.74 153.15 14.74C149.66 14.74 147.55 12.17 147.55 8.34V7.69C147.55 3.86 149.66 1.29 153.15 1.29C156.64 1.29 158.75 3.86 158.75 7.69V8.34ZM173.08 4.96V4.52C173.08 1.75 171.16 0.27 168.22 0.27H162.23V15.73H163.62V9.2H167.39L171.53 15.73H173.16L168.96 9.18C171.46 8.92 173.08 7.48 173.08 4.96ZM163.63 7.99V1.5H168.25C170.34 1.5 171.67 2.5 171.67 4.53V4.97C171.67 6.99 170.34 8 168.25 8H163.63V7.99ZM180.09 6.94L186.32 0.28H184.56L176.61 8.9V0.28H175.22V15.74H176.61V10.62L179.11 7.9L184.88 15.74H186.54L180.09 6.94Z" fill="#E6E5E7"/>
</g>
<defs>
<clipPath id="clip0_183_233">
<rect width="186.54" height="16.03" fill="white"/>
</clipPath>
</defs>
</svg>
