<?xml version="1.0" encoding="utf-8"?>
<!-- Generator: Adobe Illustrator 26.5.0, SVG Export Plug-In . SVG Version: 6.00 Build 0)  -->
<svg version="1.1" id="Layer_1" xmlns="http://www.w3.org/2000/svg" xmlns:xlink="http://www.w3.org/1999/xlink" x="0px" y="0px"
	 viewBox="0 0 24 24" enable-background="new 0 0 24 24" xml:space="preserve">
<g>
	<path fill="#FFFFFF" d="M12.8638611,6.0633402c-2.1891537,0-4.1801453,0.9423656-5.6463628,2.4772987V0H2.9413819v23.5982189
		h4.2730455v-8.5283537h0.0155087c-0.0128984-0.9346113,0.2562833-1.8518705,0.7732253-2.6350765
		c0.5170193-0.7832832,1.2584581-1.3971949,2.1300344-1.7636538c0.8716545-0.3663816,1.8340588-0.4688025,2.7648306-0.2942104
		c0.9307728,0.1746683,1.7879152,0.6183643,2.462328,1.274888c0.6743345,0.6564465,1.1356134,1.496007,1.3251009,2.4117308
		c0.1895638,0.915801,0.0985813,1.8665352-0.2611961,2.7312031c-0.3597794,0.864666-0.9720793,1.6042633-1.7590475,2.1246605
		c-0.7870445,0.5204735-1.7131338,0.798254-2.6606436,0.7980232c-0.6604385,0.000845-1.314045-0.1327477-1.9197416-0.3924866
		v4.143446c0.885704,0.3522549,1.8318319,0.5326042,2.7867889,0.5316067c4.5207281,0,8.1870031-4.0137691,8.1870031-8.9652958
		C21.0586185,10.083251,17.3845901,6.0633402,12.8638611,6.0633402z"/>
</g>
</svg>
