<?xml version="1.0" encoding="utf-8"?>
<!-- Generator: Adobe Illustrator 26.3.1, SVG Export Plug-In . SVG Version: 6.00 Build 0)  -->
<svg version="1.1" id="Layer_1" xmlns="http://www.w3.org/2000/svg" xmlns:xlink="http://www.w3.org/1999/xlink" x="0px" y="0px"
	 viewBox="0 0 80 24" enable-background="new 0 0 80 24" xml:space="preserve">
<g>
	<polygon fill="#181A26" points="54.3692017,4.9257812 54.369873,4.9258423 54.3704834,4.9257812 	"/>
	<path fill="#181A26" d="M30.3051758,4.9257812c-1.7402954,0-3.322998,0.7503662-4.4885864,1.9693604V5.2390137h-3.3994141
		v18.7597656h3.3994141v-4.7144775h-0.0258179v-7.3092041h0.0209351c0,0,0-0.0084839,0-0.0133057
		c-0.0103149-0.742981,0.2036743-1.4721069,0.614624-2.0947266c0.4108887-0.6226196,1.0002441-1.1106567,1.6930542-1.4019775
		c0.6929321-0.2913208,1.4578857-0.3728027,2.1978149-0.2340698c0.7399292,0.1386719,1.4212036,0.491333,1.9573975,1.0130615
		c0.5361938,0.5217896,0.9030151,1.1890259,1.053833,1.9169922c0.1506958,0.7279053,0.0785522,1.4836426-0.2072144,2.1710205
		c-0.2858276,0.6873779-0.7723999,1.2755127-1.3978882,1.6893311c-0.6254272,0.4138794-1.3615112,0.6348877-2.1147461,0.6349487
		c-0.5281982,0.0007324-1.0507812-0.1067505-1.53479-0.3156738v3.3995972
		c0.7088013,0.2854004,1.4671021,0.432312,2.2327271,0.432312c3.593811,0,6.506958-3.1907959,6.506958-7.1259155
		C36.8134766,8.1116943,33.8991089,4.9257812,30.3051758,4.9257812z"/>
	<path fill="#181A26" d="M7.8880005,4.8201294c-1.7402954,0-3.3230591,0.7491455-4.4886475,1.9693604V0H0v18.7597046h3.3969116
		v-6.7797241h0.0123291c-0.0102539-0.742981,0.2037354-1.472168,0.6146851-2.0947876
		C4.4349365,9.2625122,5.024353,8.7744751,5.7172241,8.4831543c0.6929321-0.2912598,1.4580078-0.3726807,2.197937-0.2338867
		c0.7399292,0.138855,1.4213257,0.4915771,1.9574585,1.0134888c0.5360718,0.5218506,0.902771,1.18927,1.0534058,1.9172363
		c0.1506958,0.7280273,0.0783691,1.4838257-0.2076416,2.1712036s-0.7727661,1.2753296-1.3983765,1.6890259
		c-0.6256714,0.4137573-1.3618774,0.6345825-2.1151123,0.6343994c-0.5250244,0.0006714-1.0446167-0.1055298-1.526123-0.3120117
		v3.2938843c0.7041016,0.2800293,1.4562378,0.4234009,2.2153931,0.4226074c3.593811,0,6.5083618-3.1907959,6.5083618-7.1270752
		C14.4025269,8.0158081,11.4818115,4.8201294,7.8880005,4.8201294z"/>
	<rect x="16.4677124" y="5.2402344" fill="#181A26" width="3.3994141" height="13.5194702"/>
	<path fill="#181A26" d="M42.338501,7.0687256V5.2402344h-3.4006958v13.5194702h3.4006958v-7.4996948
		c0.4824219-1.449707,2.0109863-2.5096436,3.8226929-2.5096436c0.0899048,0,0.1796875,0,0.2670898,0.0097046V4.9573364
		C44.8295288,5.1018066,43.3969116,5.883728,42.338501,7.0687256z"/>
	<rect x="76.6018066" y="5.2402344" fill="#181A26" width="3.3981934" height="13.5194702"/>
	<polygon fill="#181A26" points="74.6351318,5.2402344 70.7039795,5.2402344 67.9962769,9.0490112 65.2885742,5.2402344 
		61.3551025,5.2402344 66.0319824,11.8135986 61.0916748,18.7597046 65.0228271,18.7597046 67.9974976,14.5770264 
		70.97229,18.7597046 74.9033813,18.7597046 69.9630737,11.8135986 	"/>
	<polygon fill="#181A26" points="54.3704834,15.8773804 54.369812,15.8773193 54.3692017,15.8773804 	"/>
	<path fill="#181A26" d="M54.369873,4.9258423c-3.8864136,0.0003662-7.038147,3.190979-7.038147,7.1269531
		c0,3.9362793,3.1519775,7.1257935,7.0387573,7.1257935c3.8867188,0,7.0386963-3.1906738,7.0386963-7.1257935
		C61.4091797,8.118042,58.2562866,4.9262085,54.369873,4.9258423z M54.369812,15.8773193
		c0.0002441,0,0.0004272,0.000061,0.0006714,0.000061h-0.0012817C54.3694458,15.8773804,54.3695679,15.8773193,54.369812,15.8773193
		c-2.0919189-0.0003662-3.777832-1.7121582-3.777832-3.8245239c0-2.1126099,1.6923218-3.8257446,3.7785034-3.8257446
		c2.0861206,0,3.7784424,1.7131348,3.7784424,3.8257446C58.1489258,14.1651611,56.4556274,15.8769531,54.369812,15.8773193z"/>
</g>
</svg>
